<svg width="204" height="44" viewBox="0 0 204 44" fill="none" xmlns="http://www.w3.org/2000/svg">
<path d="M70.4964 9.32599H68.1058C68.0376 8.93395 67.9119 8.58665 67.7287 8.28409C67.5455 7.97727 67.3175 7.71733 67.0447 7.50426C66.772 7.29119 66.4609 7.13139 66.1115 7.02486C65.7663 6.91406 65.3935 6.85866 64.9929 6.85866C64.2813 6.85866 63.6506 7.03764 63.1009 7.3956C62.5511 7.74929 62.1207 8.26918 61.8097 8.95526C61.4986 9.63707 61.343 10.4702 61.343 11.4545C61.343 12.456 61.4986 13.2997 61.8097 13.9858C62.125 14.6676 62.5554 15.1832 63.1009 15.5327C63.6506 15.8778 64.2791 16.0504 64.9865 16.0504C65.3786 16.0504 65.745 15.9993 66.0859 15.897C66.4311 15.7905 66.7401 15.6349 67.0128 15.4304C67.2898 15.2259 67.522 14.9744 67.7095 14.6761C67.9013 14.3778 68.0334 14.0369 68.1058 13.6534L70.4964 13.6662C70.407 14.2884 70.2131 14.8722 69.9148 15.4176C69.6207 15.9631 69.2351 16.4446 68.7578 16.8622C68.2805 17.2756 67.7223 17.5994 67.0831 17.8338C66.4439 18.0639 65.7344 18.179 64.9545 18.179C63.804 18.179 62.777 17.9126 61.8736 17.38C60.9702 16.8473 60.2585 16.0781 59.7386 15.0724C59.2188 14.0668 58.9588 12.8608 58.9588 11.4545C58.9588 10.044 59.2209 8.83807 59.745 7.83665C60.2692 6.83097 60.983 6.06179 61.8864 5.52912C62.7898 4.99645 63.8125 4.73011 64.9545 4.73011C65.6832 4.73011 66.3608 4.83239 66.9872 5.03693C67.6136 5.24148 68.1719 5.5419 68.6619 5.93821C69.152 6.33026 69.5547 6.81179 69.87 7.38281C70.1896 7.94957 70.3984 8.5973 70.4964 9.32599ZM72.0289 10.0803V8.18182H80.6199V10.0803H77.443V18H75.2058V10.0803H72.0289ZM83.9006 21.6818C83.5852 21.6818 83.2933 21.6563 83.0249 21.6051C82.7607 21.5582 82.5497 21.5028 82.392 21.4389L82.929 19.6364C83.2656 19.7344 83.5661 19.7813 83.8303 19.777C84.0945 19.7727 84.3267 19.6896 84.527 19.5277C84.7315 19.37 84.9041 19.1058 85.0447 18.7351L85.2429 18.2045L81.6825 8.18182H84.1371L86.3999 15.5966H86.5021L88.7713 8.18182H91.2322L87.3011 19.1889C87.1179 19.7088 86.875 20.1541 86.5724 20.5249C86.2699 20.8999 85.8991 21.1854 85.4602 21.3814C85.0256 21.5817 84.5057 21.6818 83.9006 21.6818ZM91.1555 20.8509V16.0952H91.9354C92.1442 15.9332 92.3189 15.7138 92.4595 15.4368C92.6001 15.1555 92.7152 14.8253 92.8047 14.446C92.8984 14.0625 92.9751 13.6342 93.0348 13.1612C93.0945 12.6839 93.1477 12.1705 93.1946 11.6207L93.4759 8.18182H100.571V16.0952H102.092V20.8509H99.8551V18H93.4311V20.8509H91.1555ZM94.3132 16.0952H98.3594V10.0483H95.483L95.3295 11.6207C95.2443 12.6605 95.1314 13.5511 94.9908 14.2926C94.8501 15.0341 94.6243 15.6349 94.3132 16.0952ZM108.166 18.1918C107.182 18.1918 106.332 17.9872 105.616 17.5781C104.904 17.1648 104.357 16.581 103.973 15.8267C103.59 15.0682 103.398 14.1754 103.398 13.1484C103.398 12.1385 103.59 11.2521 103.973 10.4893C104.361 9.7223 104.902 9.12571 105.597 8.69957C106.291 8.26918 107.107 8.05398 108.045 8.05398C108.65 8.05398 109.221 8.15199 109.758 8.34801C110.299 8.53977 110.776 8.83807 111.19 9.2429C111.607 9.64773 111.936 10.1634 112.174 10.7898C112.413 11.4119 112.532 12.1534 112.532 13.0142V13.7237H104.485V12.1641H110.314C110.31 11.7209 110.214 11.3267 110.026 10.9815C109.839 10.6321 109.577 10.3572 109.24 10.157C108.908 9.95668 108.52 9.85653 108.077 9.85653C107.604 9.85653 107.188 9.97159 106.83 10.2017C106.472 10.4276 106.193 10.7259 105.993 11.0966C105.797 11.4631 105.697 11.8658 105.693 12.3047V13.6662C105.693 14.2372 105.797 14.7273 106.006 15.1364C106.215 15.5412 106.507 15.8523 106.882 16.0696C107.257 16.2827 107.695 16.3892 108.198 16.3892C108.535 16.3892 108.84 16.3423 109.112 16.2486C109.385 16.1506 109.622 16.0078 109.822 15.8203C110.022 15.6328 110.173 15.4006 110.276 15.1236L112.436 15.3665C112.3 15.9375 112.04 16.4361 111.656 16.8622C111.277 17.2841 110.791 17.6122 110.199 17.8466C109.607 18.0767 108.929 18.1918 108.166 18.1918ZM121.233 12.1321V14.0305H116.005V12.1321H121.233ZM116.721 8.18182V18H114.49V8.18182H116.721ZM122.748 8.18182V18H120.524V8.18182H122.748ZM133.29 8.18182V18H131.066V8.18182H133.29ZM132.248 12.6179V14.5099C131.997 14.6207 131.711 14.7209 131.392 14.8104C131.077 14.8956 130.742 14.9638 130.388 15.0149C130.039 15.0661 129.689 15.0916 129.34 15.0916C128.028 15.0916 126.99 14.7976 126.227 14.2095C125.469 13.6172 125.089 12.6946 125.089 11.4418V8.16903H127.301V11.4418C127.301 11.8636 127.376 12.2024 127.525 12.4581C127.674 12.7138 127.9 12.9013 128.202 13.0206C128.505 13.1357 128.884 13.1932 129.34 13.1932C129.851 13.1932 130.337 13.142 130.797 13.0398C131.258 12.9375 131.741 12.7969 132.248 12.6179ZM139.965 18.1918C138.981 18.1918 138.131 17.9872 137.415 17.5781C136.703 17.1648 136.156 16.581 135.772 15.8267C135.388 15.0682 135.197 14.1754 135.197 13.1484C135.197 12.1385 135.388 11.2521 135.772 10.4893C136.16 9.7223 136.701 9.12571 137.396 8.69957C138.09 8.26918 138.906 8.05398 139.844 8.05398C140.449 8.05398 141.02 8.15199 141.557 8.34801C142.098 8.53977 142.575 8.83807 142.989 9.2429C143.406 9.64773 143.734 10.1634 143.973 10.7898C144.212 11.4119 144.331 12.1534 144.331 13.0142V13.7237H136.283V12.1641H142.113C142.109 11.7209 142.013 11.3267 141.825 10.9815C141.638 10.6321 141.376 10.3572 141.039 10.157C140.707 9.95668 140.319 9.85653 139.876 9.85653C139.403 9.85653 138.987 9.97159 138.629 10.2017C138.271 10.4276 137.992 10.7259 137.792 11.0966C137.596 11.4631 137.496 11.8658 137.491 12.3047V13.6662C137.491 14.2372 137.596 14.7273 137.805 15.1364C138.013 15.5412 138.305 15.8523 138.68 16.0696C139.055 16.2827 139.494 16.3892 139.997 16.3892C140.334 16.3892 140.638 16.3423 140.911 16.2486C141.184 16.1506 141.42 16.0078 141.621 15.8203C141.821 15.6328 141.972 15.4006 142.075 15.1236L144.235 15.3665C144.099 15.9375 143.839 16.4361 143.455 16.8622C143.076 17.2841 142.59 17.6122 141.998 17.8466C141.406 18.0767 140.728 18.1918 139.965 18.1918ZM150.571 18.1918C149.591 18.1918 148.749 17.9766 148.046 17.5462C147.347 17.1158 146.808 16.5213 146.429 15.7628C146.054 15 145.867 14.1222 145.867 13.1293C145.867 12.1321 146.058 11.2521 146.442 10.4893C146.825 9.7223 147.367 9.12571 148.066 8.69957C148.769 8.26918 149.6 8.05398 150.558 8.05398C151.355 8.05398 152.061 8.20099 152.674 8.49503C153.292 8.7848 153.784 9.19602 154.151 9.72869C154.517 10.2571 154.726 10.875 154.777 11.5824H152.566C152.476 11.1094 152.263 10.7152 151.926 10.3999C151.594 10.0803 151.149 9.92045 150.59 9.92045C150.117 9.92045 149.702 10.0483 149.344 10.304C148.986 10.5554 148.707 10.9176 148.507 11.3906C148.311 11.8636 148.213 12.4304 148.213 13.0909C148.213 13.7599 148.311 14.3352 148.507 14.8168C148.703 15.294 148.977 15.6626 149.331 15.9226C149.689 16.1783 150.109 16.3061 150.59 16.3061C150.931 16.3061 151.236 16.2422 151.504 16.1143C151.777 15.9822 152.005 15.7926 152.188 15.5455C152.372 15.2983 152.497 14.9979 152.566 14.6442H154.777C154.722 15.3388 154.517 15.9545 154.164 16.4915C153.81 17.0241 153.328 17.4418 152.719 17.7443C152.11 18.0426 151.394 18.1918 150.571 18.1918ZM156.677 18V8.18182H158.991V12.1449H159.835L162.788 8.18182H165.575L161.938 13.0014L165.613 18H162.814L160.123 14.299H158.991V18H156.677ZM169.156 14.8679L173.087 8.18182H175.465V18H173.228V11.3075L169.309 18H166.925V8.18182H169.156V14.8679ZM180.072 14.8679L184.003 8.18182H186.381V18H184.144V11.3075L180.225 18H177.841V8.18182H180.072V14.8679ZM183.37 4.80682H185.103C185.103 5.55256 184.832 6.15767 184.291 6.62216C183.754 7.08239 183.025 7.3125 182.105 7.3125C181.193 7.3125 180.466 7.08239 179.925 6.62216C179.388 6.15767 179.122 5.55256 179.126 4.80682H180.846C180.846 5.11364 180.939 5.38849 181.127 5.63139C181.319 5.87003 181.645 5.98935 182.105 5.98935C182.556 5.98935 182.878 5.87003 183.07 5.63139C183.266 5.39276 183.366 5.1179 183.37 4.80682ZM63.6442 43.3366V26.9091H65.9645V43.3366H63.6442ZM63.6442 40.1918C62.924 40.1918 62.2656 40.0703 61.669 39.8274C61.0724 39.5845 60.5568 39.2393 60.1222 38.7919C59.6918 38.3445 59.3572 37.8118 59.1186 37.1939C58.8842 36.5717 58.767 35.8835 58.767 35.1293C58.767 34.375 58.8842 33.6868 59.1186 33.0646C59.3572 32.4425 59.6918 31.9077 60.1222 31.4602C60.5568 31.0085 61.0724 30.6612 61.669 30.4183C62.2656 30.1754 62.924 30.054 63.6442 30.054H64.1364V40.1918H63.6442ZM63.6442 38.3253H63.9318V31.9205H63.6442C63.2351 31.9205 62.8729 32.0057 62.5575 32.1761C62.2464 32.3423 61.9844 32.5746 61.7713 32.8729C61.5625 33.1669 61.4027 33.5078 61.2919 33.8956C61.1854 34.2791 61.1321 34.6903 61.1321 35.1293C61.1321 35.7131 61.228 36.2479 61.4197 36.7337C61.6115 37.2152 61.8928 37.6009 62.2635 37.8906C62.6385 38.1804 63.0987 38.3253 63.6442 38.3253ZM65.9645 40.1918H65.4723V30.054H65.9645C66.6847 30.054 67.343 30.1754 67.9396 30.4183C68.5362 30.6612 69.0497 31.0085 69.4801 31.4602C69.9148 31.9077 70.2493 32.4425 70.4837 33.0646C70.7223 33.6868 70.8416 34.375 70.8416 35.1293C70.8416 35.8835 70.7223 36.5717 70.4837 37.1939C70.2493 37.8118 69.9148 38.3445 69.4801 38.7919C69.0497 39.2393 68.5362 39.5845 67.9396 39.8274C67.343 40.0703 66.6847 40.1918 65.9645 40.1918ZM65.9645 38.3253C66.3778 38.3253 66.7401 38.2422 67.0511 38.076C67.3622 37.9098 67.6222 37.6797 67.831 37.3857C68.044 37.0916 68.2038 36.7528 68.3104 36.3693C68.4169 35.9815 68.4702 35.5682 68.4702 35.1293C68.4702 34.5455 68.3764 34.0107 68.1889 33.5249C68.0014 33.0391 67.7202 32.6513 67.3452 32.3615C66.9744 32.0675 66.5142 31.9205 65.9645 31.9205H65.6768V38.3253H65.9645ZM75.6197 40.1982C74.9975 40.1982 74.4371 40.0874 73.9386 39.8658C73.4442 39.6399 73.0522 39.3075 72.7624 38.8686C72.4769 38.4297 72.3342 37.8885 72.3342 37.245C72.3342 36.6911 72.4364 36.233 72.641 35.8707C72.8455 35.5085 73.1246 35.2188 73.4783 35.0014C73.832 34.7841 74.2305 34.62 74.6737 34.5092C75.1211 34.3942 75.5835 34.3111 76.0607 34.2599C76.636 34.2003 77.1026 34.147 77.4606 34.1001C77.8185 34.049 78.0785 33.9723 78.2404 33.87C78.4066 33.7635 78.4897 33.5994 78.4897 33.3778V33.3395C78.4897 32.858 78.3469 32.4851 78.0614 32.2209C77.7759 31.9567 77.3647 31.8246 76.8278 31.8246C76.261 31.8246 75.8114 31.9482 75.479 32.1953C75.1509 32.4425 74.9293 32.7344 74.8143 33.071L72.6538 32.7642C72.8242 32.1676 73.1055 31.669 73.4975 31.2685C73.8896 30.8636 74.369 30.5611 74.9357 30.3608C75.5025 30.1562 76.1289 30.054 76.815 30.054C77.288 30.054 77.7589 30.1094 78.2276 30.2202C78.6964 30.331 79.1246 30.5142 79.5124 30.7699C79.9002 31.0213 80.2113 31.3643 80.4457 31.799C80.6843 32.2337 80.8036 32.777 80.8036 33.429V40H78.5792V38.6513H78.5025C78.3619 38.924 78.1637 39.1797 77.908 39.4183C77.6566 39.6527 77.3391 39.8423 76.9556 39.9872C76.5763 40.1278 76.131 40.1982 75.6197 40.1982ZM76.2205 38.4979C76.685 38.4979 77.0877 38.4062 77.4286 38.223C77.7695 38.0355 78.0316 37.7884 78.2148 37.4815C78.4023 37.1747 78.4961 36.8402 78.4961 36.478V35.321C78.4237 35.3807 78.3001 35.4361 78.1254 35.4872C77.9549 35.5384 77.7631 35.5831 77.5501 35.6214C77.337 35.6598 77.1261 35.6939 76.9173 35.7237C76.7085 35.7536 76.5273 35.7791 76.3739 35.8004C76.0288 35.8473 75.7198 35.924 75.4471 36.0305C75.1744 36.1371 74.9592 36.2862 74.8015 36.478C74.6438 36.6655 74.565 36.9084 74.565 37.2067C74.565 37.6328 74.7205 37.9545 75.0316 38.1719C75.3427 38.3892 75.739 38.4979 76.2205 38.4979ZM85.3612 36.8679L89.2923 30.1818H91.6701V40H89.4329V33.3075L85.5146 40H83.1303V30.1818H85.3612V36.8679ZM88.6594 26.8068H90.3917C90.3917 27.5526 90.1211 28.1577 89.5799 28.6222C89.043 29.0824 88.3143 29.3125 87.3938 29.3125C86.4819 29.3125 85.7553 29.0824 85.2141 28.6222C84.6772 28.1577 84.4109 27.5526 84.4151 26.8068H86.1346C86.1346 27.1136 86.2283 27.3885 86.4158 27.6314C86.6076 27.87 86.9336 27.9893 87.3938 27.9893C87.8455 27.9893 88.1673 27.87 88.359 27.6314C88.555 27.3928 88.6552 27.1179 88.6594 26.8068ZM93.3688 40L93.356 38.0952H93.6948C93.9505 38.0952 94.1657 38.0376 94.3404 37.9226C94.5151 37.8075 94.66 37.6158 94.775 37.3473C94.8901 37.0746 94.9796 36.7081 95.0435 36.2479C95.1074 35.7876 95.1522 35.2145 95.1777 34.5284L95.3503 30.1818H102.509V40H100.272V32.0803H97.4533L97.2999 35.2443C97.2615 36.0625 97.1699 36.772 97.025 37.3729C96.8844 37.9695 96.6841 38.4616 96.4242 38.8494C96.1685 39.2372 95.8468 39.527 95.459 39.7188C95.0712 39.9062 94.6131 40 94.0847 40H93.3688ZM109.122 40.1918C108.163 40.1918 107.332 39.9808 106.629 39.5589C105.926 39.1371 105.381 38.5469 104.993 37.7884C104.609 37.0298 104.417 36.1435 104.417 35.1293C104.417 34.1151 104.609 33.2266 104.993 32.4638C105.381 31.701 105.926 31.1087 106.629 30.6868C107.332 30.2649 108.163 30.054 109.122 30.054C110.081 30.054 110.912 30.2649 111.615 30.6868C112.318 31.1087 112.861 31.701 113.245 32.4638C113.633 33.2266 113.827 34.1151 113.827 35.1293C113.827 36.1435 113.633 37.0298 113.245 37.7884C112.861 38.5469 112.318 39.1371 111.615 39.5589C110.912 39.9808 110.081 40.1918 109.122 40.1918ZM109.135 38.3381C109.655 38.3381 110.089 38.1953 110.439 37.9098C110.788 37.62 111.048 37.2322 111.219 36.7464C111.393 36.2607 111.481 35.7195 111.481 35.1229C111.481 34.522 111.393 33.9787 111.219 33.4929C111.048 33.0028 110.788 32.6129 110.439 32.3232C110.089 32.0334 109.655 31.8885 109.135 31.8885C108.602 31.8885 108.159 32.0334 107.805 32.3232C107.456 32.6129 107.194 33.0028 107.019 33.4929C106.849 33.9787 106.763 34.522 106.763 35.1229C106.763 35.7195 106.849 36.2607 107.019 36.7464C107.194 37.2322 107.456 37.62 107.805 37.9098C108.159 38.1953 108.602 38.3381 109.135 38.3381ZM120.073 40.1918C119.114 40.1918 118.283 39.9808 117.58 39.5589C116.877 39.1371 116.332 38.5469 115.944 37.7884C115.56 37.0298 115.369 36.1435 115.369 35.1293C115.369 34.1151 115.56 33.2266 115.944 32.4638C116.332 31.701 116.877 31.1087 117.58 30.6868C118.283 30.2649 119.114 30.054 120.073 30.054C121.032 30.054 121.863 30.2649 122.566 30.6868C123.269 31.1087 123.813 31.701 124.196 32.4638C124.584 33.2266 124.778 34.1151 124.778 35.1293C124.778 36.1435 124.584 37.0298 124.196 37.7884C123.813 38.5469 123.269 39.1371 122.566 39.5589C121.863 39.9808 121.032 40.1918 120.073 40.1918ZM120.086 38.3381C120.606 38.3381 121.04 38.1953 121.39 37.9098C121.739 37.62 121.999 37.2322 122.17 36.7464C122.344 36.2607 122.432 35.7195 122.432 35.1229C122.432 34.522 122.344 33.9787 122.17 33.4929C121.999 33.0028 121.739 32.6129 121.39 32.3232C121.04 32.0334 120.606 31.8885 120.086 31.8885C119.553 31.8885 119.11 32.0334 118.756 32.3232C118.407 32.6129 118.145 33.0028 117.97 33.4929C117.8 33.9787 117.714 34.522 117.714 35.1229C117.714 35.7195 117.8 36.2607 117.97 36.7464C118.145 37.2322 118.407 37.62 118.756 37.9098C119.11 38.1953 119.553 38.3381 120.086 38.3381ZM134.61 26.5511L135.416 28.0469C135.13 28.294 134.811 28.473 134.457 28.5838C134.103 28.6946 133.688 28.767 133.21 28.8011C132.737 28.831 132.175 28.8523 131.523 28.8651C130.79 28.8821 130.191 29.0206 129.727 29.2805C129.262 29.5405 128.906 29.9347 128.659 30.4631C128.412 30.9872 128.25 31.6562 128.173 32.4702H128.282C128.589 31.8693 129.019 31.4112 129.573 31.0959C130.127 30.7805 130.777 30.6229 131.523 30.6229C132.337 30.6229 133.055 30.8061 133.677 31.1726C134.303 31.5348 134.791 32.0611 135.141 32.7514C135.494 33.4418 135.671 34.277 135.671 35.2571C135.671 36.267 135.482 37.1428 135.102 37.8842C134.723 38.6214 134.184 39.1903 133.485 39.5909C132.791 39.9915 131.966 40.1918 131.012 40.1918C130.061 40.1918 129.235 39.9851 128.531 39.5717C127.833 39.1541 127.291 38.5384 126.908 37.7244C126.529 36.9062 126.339 35.8984 126.339 34.701V33.8189C126.339 31.5092 126.769 29.7855 127.63 28.6477C128.491 27.5099 129.767 26.9304 131.459 26.9091C131.962 26.9006 132.411 26.8984 132.808 26.9027C133.208 26.907 133.558 26.8878 133.856 26.8452C134.154 26.8026 134.406 26.7045 134.61 26.5511ZM131.024 38.3381C131.497 38.3381 131.906 38.2166 132.252 37.9737C132.597 37.7266 132.861 37.3771 133.044 36.9254C133.232 36.4737 133.325 35.9389 133.325 35.321C133.325 34.7116 133.232 34.1939 133.044 33.7678C132.857 33.3374 132.59 33.0092 132.245 32.7834C131.9 32.5575 131.489 32.4446 131.012 32.4446C130.654 32.4446 130.332 32.5085 130.046 32.6364C129.761 32.7642 129.518 32.9517 129.318 33.1989C129.117 33.446 128.964 33.7464 128.857 34.1001C128.751 34.4538 128.693 34.8608 128.685 35.321C128.685 36.2457 128.894 36.9808 129.311 37.5263C129.729 38.0675 130.3 38.3381 131.024 38.3381ZM143.291 37.3089L146.205 30.1818H148.072L144.102 40H142.485L138.605 30.1818H140.453L143.291 37.3089ZM139.871 30.1818V40H137.64V30.1818H139.871ZM146.806 40V30.1818H149.018V40H146.806ZM155.698 40.1918C154.713 40.1918 153.863 39.9872 153.147 39.5781C152.436 39.1648 151.888 38.581 151.504 37.8267C151.121 37.0682 150.929 36.1754 150.929 35.1484C150.929 34.1385 151.121 33.2521 151.504 32.4893C151.892 31.7223 152.433 31.1257 153.128 30.6996C153.823 30.2692 154.639 30.054 155.576 30.054C156.181 30.054 156.752 30.152 157.289 30.348C157.83 30.5398 158.308 30.8381 158.721 31.2429C159.139 31.6477 159.467 32.1634 159.705 32.7898C159.944 33.4119 160.063 34.1534 160.063 35.0142V35.7237H152.016V34.1641H157.845C157.841 33.7209 157.745 33.3267 157.558 32.9815C157.37 32.6321 157.108 32.3572 156.771 32.157C156.439 31.9567 156.051 31.8565 155.608 31.8565C155.135 31.8565 154.72 31.9716 154.362 32.2017C154.004 32.4276 153.725 32.7259 153.524 33.0966C153.328 33.4631 153.228 33.8658 153.224 34.3047V35.6662C153.224 36.2372 153.328 36.7273 153.537 37.1364C153.746 37.5412 154.038 37.8523 154.413 38.0696C154.788 38.2827 155.227 38.3892 155.73 38.3892C156.066 38.3892 156.371 38.3423 156.644 38.2486C156.916 38.1506 157.153 38.0078 157.353 37.8203C157.553 37.6328 157.705 37.4006 157.807 37.1236L159.968 37.3665C159.831 37.9375 159.571 38.4361 159.188 38.8622C158.808 39.2841 158.323 39.6122 157.73 39.8466C157.138 40.0767 156.46 40.1918 155.698 40.1918ZM168.765 34.1321V36.0305H163.536V34.1321H168.765ZM164.252 30.1818V40H162.021V30.1818H164.252ZM170.279 30.1818V40H168.055V30.1818H170.279ZM179.364 34.1321V36.0305H174.135V34.1321H179.364ZM174.851 30.1818V40H172.621V30.1818H174.851ZM180.879 30.1818V40H178.655V30.1818H180.879ZM185.451 36.8679L189.382 30.1818H191.76V40H189.523V33.3075L185.604 40H183.22V30.1818H185.451V36.8679ZM194.136 40V30.1818H196.45V34.1449H197.294L200.247 30.1818H203.034L199.397 35.0014L203.072 40H200.273L197.581 36.299H196.45V40H194.136Z" fill="#181818"/>
<rect x="2" y="15" width="26" height="26" rx="4" stroke="#A6C81E" stroke-width="4"/>
<rect x="12" y="5" width="26" height="26" rx="4" stroke="#A6C81E" stroke-width="4"/>
</svg>
